<svg xmlns="http://www.w3.org/2000/svg" viewBox="0 0 512 512">
	<path fill="#FF9800" d="m479,80.00014l0,43.74973c0,38.55496 -100.333,70.00014 -224,70.00014s-224,-31.44518 -224,-70.00014l0,-43.74973c0,-38.55496 100.333,-70.00014 224,-70.00014s224,31.44518 224,70.00014zm0,98.43736l0,98.43736c0,38.55496 -100.333,70.00014 -224,70.00014s-224,-31.44518 -224,-70.00014l0,-98.43736c48.125,31.71889 136.208,46.48492 224,46.48492s175.874,-14.76604 224,-46.48492zm0,153.125l0,98.43736c0,38.55496 -100.333,70.00014 -224,70.00014s-224,-31.44518 -224,-70.00014l0,-98.43736c48.125,31.71889 136.208,46.48492 224,46.48492s175.874,-14.76604 224,-46.48492z"/>
</svg>