<svg xmlns="http://www.w3.org/2000/svg" viewBox="0 0 512 512">
	<path fill="#F16529" d="m437.00001,127.98686l0,5.76315l-121,0l0,-121.75001l5.72765,0c6.01691,0 11.78805,2.40551 16.0429,6.68579l92.58486,93.15873a22.69223,22.83288 0 0 1 6.6446,16.14234zm-128.56251,36.20065c-12.47813,0 -22.6875,-10.27266 -22.6875,-22.82813l0,-129.35938l-189.06251,0c-12.53012,0 -22.6875,10.22034 -22.6875,22.82813l0,441.34378c0,12.60778 10.15738,22.82813 22.6875,22.82813l317.62501,0c12.53012,0 22.6875,-10.22034 22.6875,-22.82813l0,-311.98439l-128.56251,0zm-117.96933,228.76161a5.10469,5.13633 0 0 1 -7.21557,0.23399l-61.31864,-57.84267a5.10469,5.13633 0 0 1 0,-7.49428l61.31864,-57.84267a5.10469,5.13633 0 0 1 7.21557,0.23399l18.50827,19.86523a5.10469,5.13633 0 0 1 -0.35166,7.36873l-38.53377,34.12234l38.53377,34.12234a5.10469,5.13633 0 0 1 0.35166,7.36873l-18.50827,19.86427zm48.48981,48.01421l-25.95167,-7.58084a5.10658,5.13823 0 0 1 -3.4797,-6.36524l58.08,-201.29271a5.10658,5.13823 0 0 1 6.32603,-3.50126l25.95072,7.58084a5.10469,5.13633 0 0 1 3.47875,6.36524l-58.08,201.29271a5.10185,5.13347 0 0 1 -6.32414,3.50126zm151.99869,-105.62289l-61.31864,57.84267a5.10469,5.13633 0 0 1 -7.21557,-0.23399l-18.50922,-19.86523a5.10469,5.13633 0 0 1 0.35166,-7.36873l38.53472,-34.12139l-38.53377,-34.12234a5.10469,5.13633 0 0 1 -0.35166,-7.36873l18.50922,-19.86523a5.10469,5.13633 0 0 1 7.21557,-0.23399l61.31864,57.84267a5.10469,5.13633 0 0 1 -0.00095,7.49428z"/>
</svg>